<svg xmlns="http://www.w3.org/2000/svg" xmlns:xlink="http://www.w3.org/1999/xlink" width="668" zoomAndPan="magnify" viewBox="0 0 501 262.499992" height="350" preserveAspectRatio="xMidYMid meet" version="1.2"><defs><clipPath id="abe037174e"><path d="M 199.722656 33.617188 L 249 33.617188 L 249 118 L 199.722656 118 Z M 199.722656 33.617188 "/></clipPath><clipPath id="c9f97a21cd"><path d="M 203 33.617188 L 245 33.617188 L 245 52 L 203 52 Z M 203 33.617188 "/></clipPath><clipPath id="46d0fdda3a"><path d="M 252 33.617188 L 301.527344 33.617188 L 301.527344 118 L 252 118 Z M 252 33.617188 "/></clipPath><clipPath id="74ca023387"><path d="M 256 33.617188 L 298 33.617188 L 298 52 L 256 52 Z M 256 33.617188 "/></clipPath></defs><g id="e09be8f602"><path style="fill:none;stroke-width:1;stroke-linecap:round;stroke-linejoin:miter;stroke:#ff66c4;stroke-opacity:1;stroke-miterlimit:4;" d="M 0.502046 0.50211 L 592.252088 0.50211 " transform="matrix(0.748574,0,0,0.748574,28.639806,201.06554)"/><path style="fill:none;stroke-width:1;stroke-linecap:round;stroke-linejoin:miter;stroke:#ff66c4;stroke-opacity:1;stroke-miterlimit:4;" d="M 0.502046 0.502479 L 592.252088 0.502479 " transform="matrix(0.748574,0,0,0.748574,28.639806,117.534013)"/><g clip-rule="nonzero" clip-path="url(#abe037174e)"><path style=" stroke:none;fill-rule:evenodd;fill:#1800ad;fill-opacity:1;" d="M 248.964844 33.617188 L 232.488281 54.3125 L 199.742188 56.109375 L 239.171875 106.769531 L 204.199219 57.617188 L 232.34375 57.878906 L 248.261719 117.902344 C 244.132812 97.304688 240.003906 76.707031 235.875 56.109375 Z M 248.964844 33.617188 "/></g><g clip-rule="nonzero" clip-path="url(#c9f97a21cd)"><path style=" stroke:none;fill-rule:nonzero;fill:#1800ad;fill-opacity:1;" d="M 244.136719 33.617188 L 217.492188 33.617188 L 203.109375 51.460938 L 218.96875 35.4375 Z M 244.136719 33.617188 "/></g><g clip-rule="nonzero" clip-path="url(#46d0fdda3a)"><path style=" stroke:none;fill-rule:evenodd;fill:#1800ad;fill-opacity:1;" d="M 252.027344 33.617188 L 268.503906 54.3125 L 301.25 56.109375 L 261.816406 106.769531 L 296.792969 57.617188 L 268.648438 57.878906 L 252.730469 117.902344 C 256.859375 97.304688 260.988281 76.707031 265.117188 56.109375 Z M 252.027344 33.617188 "/></g><g clip-rule="nonzero" clip-path="url(#74ca023387)"><path style=" stroke:none;fill-rule:nonzero;fill:#1800ad;fill-opacity:1;" d="M 256.855469 33.617188 L 283.5 33.617188 L 297.882812 51.460938 L 282.023438 35.4375 Z M 256.855469 33.617188 "/></g><g style="fill:#1800ad;fill-opacity:1;"><g transform="translate(92.300007, 173.990848)"><path style="stroke:none" d="M -0.984375 7.1875 C 0.210938 7.082031 1.203125 6.734375 1.984375 6.140625 C 2.773438 5.554688 3.375 4.585938 3.78125 3.234375 C 4.195312 1.878906 4.40625 0.03125 4.40625 -2.3125 L 4.40625 -25.78125 C 4.40625 -26.863281 4.328125 -27.644531 4.171875 -28.125 C 4.015625 -28.613281 3.710938 -28.941406 3.265625 -29.109375 C 2.828125 -29.285156 2.140625 -29.40625 1.203125 -29.46875 L 1.203125 -30.328125 C 2.628906 -30.234375 4.785156 -30.1875 7.671875 -30.1875 C 10.609375 -30.1875 12.863281 -30.234375 14.4375 -30.328125 L 14.4375 -29.46875 C 13.46875 -29.40625 12.765625 -29.285156 12.328125 -29.109375 C 11.898438 -28.941406 11.609375 -28.613281 11.453125 -28.125 C 11.296875 -27.644531 11.21875 -26.863281 11.21875 -25.78125 L 11.21875 -7.5 C 11.21875 -3.46875 10.976562 -0.609375 10.5 1.078125 C 9.894531 3.160156 8.613281 4.84375 6.65625 6.125 C 4.695312 7.40625 2.148438 8.046875 -0.984375 8.046875 Z M -0.984375 7.1875 "/></g></g><g style="fill:#1800ad;fill-opacity:1;"><g transform="translate(112.17196, 173.990848)"><path style="stroke:none" d="M 32.84375 -29.46875 C 31.875 -29.40625 31.175781 -29.285156 30.75 -29.109375 C 30.320312 -28.941406 30.03125 -28.613281 29.875 -28.125 C 29.71875 -27.644531 29.640625 -26.863281 29.640625 -25.78125 L 29.640625 -4.546875 C 29.640625 -3.453125 29.71875 -2.660156 29.875 -2.171875 C 30.03125 -1.691406 30.320312 -1.363281 30.75 -1.1875 C 31.175781 -1.019531 31.875 -0.910156 32.84375 -0.859375 L 32.84375 0 C 31.445312 -0.0820312 29.28125 -0.125 26.34375 -0.125 C 23.457031 -0.125 21.210938 -0.0820312 19.609375 0 L 19.609375 -0.859375 C 20.554688 -0.910156 21.25 -1.019531 21.6875 -1.1875 C 22.132812 -1.363281 22.4375 -1.691406 22.59375 -2.171875 C 22.75 -2.660156 22.828125 -3.453125 22.828125 -4.546875 L 22.828125 -14.8125 L 11.484375 -14.8125 L 11.484375 -4.546875 C 11.484375 -3.453125 11.5625 -2.660156 11.71875 -2.171875 C 11.875 -1.691406 12.164062 -1.363281 12.59375 -1.1875 C 13.019531 -1.019531 13.71875 -0.910156 14.6875 -0.859375 L 14.6875 0 C 13.144531 -0.0820312 10.988281 -0.125 8.21875 -0.125 C 5.164062 -0.125 2.910156 -0.0820312 1.453125 0 L 1.453125 -0.859375 C 2.398438 -0.910156 3.09375 -1.019531 3.53125 -1.1875 C 3.976562 -1.363281 4.28125 -1.691406 4.4375 -2.171875 C 4.59375 -2.660156 4.671875 -3.453125 4.671875 -4.546875 L 4.671875 -25.78125 C 4.671875 -26.863281 4.59375 -27.644531 4.4375 -28.125 C 4.28125 -28.613281 3.976562 -28.941406 3.53125 -29.109375 C 3.09375 -29.285156 2.398438 -29.40625 1.453125 -29.46875 L 1.453125 -30.328125 C 2.910156 -30.234375 5.164062 -30.1875 8.21875 -30.1875 C 10.988281 -30.1875 13.144531 -30.234375 14.6875 -30.328125 L 14.6875 -29.46875 C 13.71875 -29.40625 13.019531 -29.285156 12.59375 -29.109375 C 12.164062 -28.941406 11.875 -28.613281 11.71875 -28.125 C 11.5625 -27.644531 11.484375 -26.863281 11.484375 -25.78125 L 11.484375 -15.671875 L 22.828125 -15.671875 L 22.828125 -25.78125 C 22.828125 -26.863281 22.75 -27.644531 22.59375 -28.125 C 22.4375 -28.613281 22.132812 -28.941406 21.6875 -29.109375 C 21.25 -29.285156 20.554688 -29.40625 19.609375 -29.46875 L 19.609375 -30.328125 C 21.210938 -30.234375 23.457031 -30.1875 26.34375 -30.1875 C 29.28125 -30.1875 31.445312 -30.234375 32.84375 -30.328125 Z M 32.84375 -29.46875 "/></g></g><g style="fill:#1800ad;fill-opacity:1;"><g transform="translate(150.715605, 173.990848)"><path style="stroke:none" d="M 28.734375 -29.46875 C 27.796875 -29.320312 27.101562 -29.078125 26.65625 -28.734375 C 26.21875 -28.390625 25.921875 -27.847656 25.765625 -27.109375 C 25.609375 -26.367188 25.53125 -25.269531 25.53125 -23.8125 L 25.53125 -12.46875 C 25.53125 -8.382812 24.941406 -5.359375 23.765625 -3.390625 C 22.992188 -2.128906 21.878906 -1.148438 20.421875 -0.453125 C 18.972656 0.242188 17.191406 0.59375 15.078125 0.59375 C 11.765625 0.59375 9.191406 -0.117188 7.359375 -1.546875 C 6.046875 -2.597656 5.160156 -3.929688 4.703125 -5.546875 C 4.253906 -7.160156 4.03125 -9.421875 4.03125 -12.328125 L 4.03125 -25.78125 C 4.03125 -26.863281 3.953125 -27.644531 3.796875 -28.125 C 3.640625 -28.613281 3.335938 -28.941406 2.890625 -29.109375 C 2.453125 -29.285156 1.757812 -29.40625 0.8125 -29.46875 L 0.8125 -30.328125 C 2.269531 -30.234375 4.5 -30.1875 7.5 -30.1875 C 10.46875 -30.1875 12.734375 -30.234375 14.296875 -30.328125 L 14.296875 -29.46875 C 13.273438 -29.40625 12.523438 -29.285156 12.046875 -29.109375 C 11.578125 -28.941406 11.253906 -28.613281 11.078125 -28.125 C 10.910156 -27.644531 10.828125 -26.863281 10.828125 -25.78125 L 10.828125 -9.640625 C 10.828125 -6.640625 11.265625 -4.429688 12.140625 -3.015625 C 13.015625 -1.609375 14.550781 -0.90625 16.75 -0.90625 C 19.601562 -0.90625 21.613281 -1.867188 22.78125 -3.796875 C 23.957031 -5.722656 24.546875 -8.453125 24.546875 -11.984375 L 24.546875 -23.296875 C 24.546875 -24.953125 24.441406 -26.179688 24.234375 -26.984375 C 24.035156 -27.785156 23.648438 -28.363281 23.078125 -28.71875 C 22.515625 -29.070312 21.617188 -29.320312 20.390625 -29.46875 L 20.390625 -30.328125 C 21.472656 -30.234375 23.015625 -30.1875 25.015625 -30.1875 C 26.609375 -30.1875 27.847656 -30.234375 28.734375 -30.328125 Z M 28.734375 -29.46875 "/></g></g><g style="fill:#1800ad;fill-opacity:1;"><g transform="translate(184.512481, 173.990848)"><path style="stroke:none" d="M 38.28125 -29.46875 C 37.3125 -29.40625 36.613281 -29.285156 36.1875 -29.109375 C 35.757812 -28.941406 35.46875 -28.613281 35.3125 -28.125 C 35.15625 -27.644531 35.078125 -26.863281 35.078125 -25.78125 L 35.078125 -4.546875 C 35.078125 -3.453125 35.15625 -2.660156 35.3125 -2.171875 C 35.46875 -1.691406 35.765625 -1.363281 36.203125 -1.1875 C 36.648438 -1.019531 37.34375 -0.910156 38.28125 -0.859375 L 38.28125 0 C 36.71875 -0.0820312 34.476562 -0.125 31.5625 -0.125 C 28.507812 -0.125 26.253906 -0.0820312 24.796875 0 L 24.796875 -0.859375 C 25.828125 -0.910156 26.578125 -1.019531 27.046875 -1.1875 C 27.515625 -1.363281 27.832031 -1.691406 28 -2.171875 C 28.175781 -2.660156 28.265625 -3.453125 28.265625 -4.546875 L 28.265625 -26.9375 L 17.9375 0.046875 L 17.265625 0.046875 L 5.703125 -27.53125 L 5.703125 -7.03125 C 5.703125 -5.34375 5.785156 -4.101562 5.953125 -3.3125 C 6.117188 -2.53125 6.488281 -1.960938 7.0625 -1.609375 C 7.632812 -1.253906 8.5625 -1.003906 9.84375 -0.859375 L 9.84375 0 C 8.738281 -0.0820312 7.195312 -0.125 5.21875 -0.125 C 3.65625 -0.125 2.414062 -0.0820312 1.5 0 L 1.5 -0.859375 C 2.4375 -1.003906 3.125 -1.242188 3.5625 -1.578125 C 4.007812 -1.921875 4.3125 -2.460938 4.46875 -3.203125 C 4.632812 -3.953125 4.71875 -5.054688 4.71875 -6.515625 L 4.71875 -25.78125 C 4.71875 -26.863281 4.632812 -27.644531 4.46875 -28.125 C 4.3125 -28.613281 4.007812 -28.941406 3.5625 -29.109375 C 3.125 -29.285156 2.4375 -29.40625 1.5 -29.46875 L 1.5 -30.328125 C 2.414062 -30.234375 3.65625 -30.1875 5.21875 -30.1875 C 7.851562 -30.1875 10.109375 -30.234375 11.984375 -30.328125 L 20.640625 -9.46875 L 28.53125 -30.1875 L 31.5625 -30.1875 C 34.476562 -30.1875 36.71875 -30.234375 38.28125 -30.328125 Z M 38.28125 -29.46875 "/></g></g><g style="fill:#1800ad;fill-opacity:1;"><g transform="translate(228.494907, 173.990848)"><path style="stroke:none" d="M 27.921875 -3.46875 C 28.347656 -2.8125 28.789062 -2.28125 29.25 -1.875 C 29.707031 -1.476562 30.289062 -1.140625 31 -0.859375 L 31 0 C 29.007812 -0.0820312 26.785156 -0.125 24.328125 -0.125 C 22.441406 -0.125 20.628906 -0.0820312 18.890625 0 L 18.890625 -0.859375 C 19.691406 -0.910156 20.269531 -0.992188 20.625 -1.109375 C 20.976562 -1.222656 21.15625 -1.425781 21.15625 -1.71875 C 21.15625 -1.945312 21 -2.300781 20.6875 -2.78125 L 14.46875 -12.84375 C 13.90625 -13.757812 13.429688 -14.375 13.046875 -14.6875 C 12.660156 -15 12.140625 -15.1875 11.484375 -15.25 L 11.484375 -4.546875 C 11.484375 -3.453125 11.5625 -2.660156 11.71875 -2.171875 C 11.875 -1.691406 12.164062 -1.363281 12.59375 -1.1875 C 13.019531 -1.019531 13.71875 -0.910156 14.6875 -0.859375 L 14.6875 0 C 13.144531 -0.0820312 10.988281 -0.125 8.21875 -0.125 C 5.164062 -0.125 2.910156 -0.0820312 1.453125 0 L 1.453125 -0.859375 C 2.398438 -0.910156 3.09375 -1.019531 3.53125 -1.1875 C 3.976562 -1.363281 4.28125 -1.691406 4.4375 -2.171875 C 4.59375 -2.660156 4.671875 -3.453125 4.671875 -4.546875 L 4.671875 -25.78125 C 4.671875 -26.863281 4.59375 -27.644531 4.4375 -28.125 C 4.28125 -28.613281 3.976562 -28.941406 3.53125 -29.109375 C 3.09375 -29.285156 2.398438 -29.40625 1.453125 -29.46875 L 1.453125 -30.328125 C 2.910156 -30.234375 5.164062 -30.1875 8.21875 -30.1875 C 10.988281 -30.1875 13.144531 -30.234375 14.6875 -30.328125 L 14.6875 -29.46875 C 13.71875 -29.40625 13.019531 -29.285156 12.59375 -29.109375 C 12.164062 -28.941406 11.875 -28.613281 11.71875 -28.125 C 11.5625 -27.644531 11.484375 -26.863281 11.484375 -25.78125 L 11.484375 -16.140625 C 12.617188 -16.203125 13.65625 -16.546875 14.59375 -17.171875 C 15.539062 -17.796875 16.613281 -18.796875 17.8125 -20.171875 L 20.34375 -23.21875 C 21.65625 -24.726562 22.3125 -26.054688 22.3125 -27.203125 C 22.3125 -27.878906 22.03125 -28.414062 21.46875 -28.8125 C 20.914062 -29.21875 20.140625 -29.453125 19.140625 -29.515625 L 19.140625 -30.328125 C 21.222656 -30.234375 23.335938 -30.1875 25.484375 -30.1875 C 27.140625 -30.1875 28.484375 -30.234375 29.515625 -30.328125 L 29.515625 -29.515625 C 27.222656 -28.960938 25.148438 -27.585938 23.296875 -25.390625 L 17.9375 -19.015625 Z M 27.921875 -3.46875 "/></g></g><g style="fill:#1800ad;fill-opacity:1;"><g transform="translate(263.355604, 173.990848)"><path style="stroke:none" d="M 26.171875 -3.59375 C 26.535156 -2.65625 26.960938 -1.972656 27.453125 -1.546875 C 27.941406 -1.117188 28.410156 -0.890625 28.859375 -0.859375 L 28.859375 0 C 27.148438 -0.0820312 24.984375 -0.125 22.359375 -0.125 C 19.441406 -0.125 17.269531 -0.0820312 15.84375 0 L 15.84375 -0.859375 C 16.925781 -0.910156 17.695312 -1.039062 18.15625 -1.25 C 18.613281 -1.46875 18.84375 -1.847656 18.84375 -2.390625 C 18.84375 -2.910156 18.671875 -3.597656 18.328125 -4.453125 L 15.765625 -11.484375 L 6.421875 -11.484375 L 5.3125 -8.515625 C 4.507812 -6.460938 4.109375 -4.878906 4.109375 -3.765625 C 4.109375 -2.710938 4.425781 -1.976562 5.0625 -1.5625 C 5.707031 -1.144531 6.660156 -0.910156 7.921875 -0.859375 L 7.921875 0 C 5.984375 -0.0820312 4.210938 -0.125 2.609375 -0.125 C 1.296875 -0.125 0.210938 -0.0820312 -0.640625 0 L -0.640625 -0.859375 C 0.753906 -1.109375 1.984375 -2.609375 3.046875 -5.359375 L 12.8125 -30.40625 C 13.125 -30.375 13.617188 -30.359375 14.296875 -30.359375 C 14.984375 -30.359375 15.472656 -30.375 15.765625 -30.40625 Z M 15.46875 -12.328125 L 11.21875 -23.890625 L 6.765625 -12.328125 Z M 15.46875 -12.328125 "/></g></g><g style="fill:#1800ad;fill-opacity:1;"><g transform="translate(296.203535, 173.990848)"><path style="stroke:none" d="M 16.703125 -15.9375 C 20.410156 -15.644531 23.132812 -14.785156 24.875 -13.359375 C 26.625 -11.929688 27.5 -10.25 27.5 -8.3125 C 27.5 -5.65625 26.457031 -3.601562 24.375 -2.15625 C 22.289062 -0.71875 19.390625 0 15.671875 0 C 14.847656 0 14.148438 -0.015625 13.578125 -0.046875 C 11.691406 -0.0976562 9.847656 -0.125 8.046875 -0.125 C 5.109375 -0.125 2.910156 -0.0820312 1.453125 0 L 1.453125 -0.859375 C 2.398438 -0.910156 3.09375 -1.019531 3.53125 -1.1875 C 3.976562 -1.363281 4.28125 -1.691406 4.4375 -2.171875 C 4.59375 -2.660156 4.671875 -3.453125 4.671875 -4.546875 L 4.671875 -25.78125 C 4.671875 -26.863281 4.59375 -27.644531 4.4375 -28.125 C 4.28125 -28.613281 3.976562 -28.941406 3.53125 -29.109375 C 3.09375 -29.285156 2.398438 -29.40625 1.453125 -29.46875 L 1.453125 -30.328125 C 2.910156 -30.234375 5.082031 -30.1875 7.96875 -30.1875 L 12.71875 -30.234375 C 13.289062 -30.265625 13.945312 -30.28125 14.6875 -30.28125 C 18.113281 -30.28125 20.734375 -29.664062 22.546875 -28.4375 C 24.359375 -27.207031 25.265625 -25.582031 25.265625 -23.5625 C 25.265625 -21.90625 24.539062 -20.359375 23.09375 -18.921875 C 21.65625 -17.492188 19.523438 -16.523438 16.703125 -16.015625 Z M 14.140625 -29.46875 C 13.367188 -29.46875 12.800781 -29.363281 12.4375 -29.15625 C 12.082031 -28.957031 11.832031 -28.601562 11.6875 -28.09375 C 11.550781 -27.582031 11.484375 -26.8125 11.484375 -25.78125 L 11.484375 -16.109375 L 13.3125 -16.109375 C 15.175781 -16.109375 16.476562 -16.742188 17.21875 -18.015625 C 17.957031 -19.285156 18.328125 -20.972656 18.328125 -23.078125 C 18.328125 -25.222656 17.988281 -26.820312 17.3125 -27.875 C 16.644531 -28.9375 15.585938 -29.46875 14.140625 -29.46875 Z M 14.4375 -0.984375 C 18.40625 -0.984375 20.390625 -3.484375 20.390625 -8.484375 C 20.390625 -10.734375 19.816406 -12.441406 18.671875 -13.609375 C 17.523438 -14.785156 15.726562 -15.375 13.28125 -15.375 L 11.484375 -15.375 L 11.484375 -4.546875 C 11.484375 -3.515625 11.550781 -2.753906 11.6875 -2.265625 C 11.832031 -1.785156 12.109375 -1.453125 12.515625 -1.265625 C 12.929688 -1.078125 13.570312 -0.984375 14.4375 -0.984375 Z M 14.4375 -0.984375 "/></g></g><g style="fill:#1800ad;fill-opacity:1;"><g transform="translate(329.265583, 173.990848)"><path style="stroke:none" d="M 26.171875 -3.59375 C 26.535156 -2.65625 26.960938 -1.972656 27.453125 -1.546875 C 27.941406 -1.117188 28.410156 -0.890625 28.859375 -0.859375 L 28.859375 0 C 27.148438 -0.0820312 24.984375 -0.125 22.359375 -0.125 C 19.441406 -0.125 17.269531 -0.0820312 15.84375 0 L 15.84375 -0.859375 C 16.925781 -0.910156 17.695312 -1.039062 18.15625 -1.25 C 18.613281 -1.46875 18.84375 -1.847656 18.84375 -2.390625 C 18.84375 -2.910156 18.671875 -3.597656 18.328125 -4.453125 L 15.765625 -11.484375 L 6.421875 -11.484375 L 5.3125 -8.515625 C 4.507812 -6.460938 4.109375 -4.878906 4.109375 -3.765625 C 4.109375 -2.710938 4.425781 -1.976562 5.0625 -1.5625 C 5.707031 -1.144531 6.660156 -0.910156 7.921875 -0.859375 L 7.921875 0 C 5.984375 -0.0820312 4.210938 -0.125 2.609375 -0.125 C 1.296875 -0.125 0.210938 -0.0820312 -0.640625 0 L -0.640625 -0.859375 C 0.753906 -1.109375 1.984375 -2.609375 3.046875 -5.359375 L 12.8125 -30.40625 C 13.125 -30.375 13.617188 -30.359375 14.296875 -30.359375 C 14.984375 -30.359375 15.472656 -30.375 15.765625 -30.40625 Z M 15.46875 -12.328125 L 11.21875 -23.890625 L 6.765625 -12.328125 Z M 15.46875 -12.328125 "/></g></g><g style="fill:#1800ad;fill-opacity:1;"><g transform="translate(362.113514, 173.990848)"><path style="stroke:none" d="M 14.953125 -29.46875 C 13.921875 -29.40625 13.164062 -29.285156 12.6875 -29.109375 C 12.21875 -28.941406 11.898438 -28.613281 11.734375 -28.125 C 11.566406 -27.644531 11.484375 -26.863281 11.484375 -25.78125 L 11.484375 -4.03125 C 11.484375 -3.113281 11.550781 -2.445312 11.6875 -2.03125 C 11.832031 -1.613281 12.082031 -1.332031 12.4375 -1.1875 C 12.800781 -1.050781 13.378906 -0.984375 14.171875 -0.984375 L 16.28125 -0.984375 C 18.21875 -0.984375 19.890625 -1.851562 21.296875 -3.59375 C 22.710938 -5.332031 23.632812 -7.644531 24.0625 -10.53125 L 25.046875 -10.53125 C 24.960938 -9.5625 24.921875 -8.304688 24.921875 -6.765625 C 24.921875 -4.023438 25.019531 -1.769531 25.21875 0 C 23.28125 -0.0820312 20.015625 -0.125 15.421875 -0.125 C 9.191406 -0.125 4.535156 -0.0820312 1.453125 0 L 1.453125 -0.859375 C 2.398438 -0.910156 3.09375 -1.019531 3.53125 -1.1875 C 3.976562 -1.363281 4.28125 -1.691406 4.4375 -2.171875 C 4.59375 -2.660156 4.671875 -3.453125 4.671875 -4.546875 L 4.671875 -25.78125 C 4.671875 -26.863281 4.59375 -27.644531 4.4375 -28.125 C 4.28125 -28.613281 3.976562 -28.941406 3.53125 -29.109375 C 3.09375 -29.285156 2.398438 -29.40625 1.453125 -29.46875 L 1.453125 -30.328125 C 2.910156 -30.234375 5.164062 -30.1875 8.21875 -30.1875 C 11.132812 -30.1875 13.378906 -30.234375 14.953125 -30.328125 Z M 14.953125 -29.46875 "/></g></g><g style="fill:#1800ad;fill-opacity:1;"><g transform="translate(392.563247, 173.990848)"><path style="stroke:none" d="M 14.6875 -29.46875 C 13.71875 -29.40625 13.019531 -29.285156 12.59375 -29.109375 C 12.164062 -28.941406 11.875 -28.613281 11.71875 -28.125 C 11.5625 -27.644531 11.484375 -26.863281 11.484375 -25.78125 L 11.484375 -4.546875 C 11.484375 -3.453125 11.5625 -2.660156 11.71875 -2.171875 C 11.875 -1.691406 12.164062 -1.363281 12.59375 -1.1875 C 13.019531 -1.019531 13.71875 -0.910156 14.6875 -0.859375 L 14.6875 0 C 13.144531 -0.0820312 10.988281 -0.125 8.21875 -0.125 C 5.164062 -0.125 2.910156 -0.0820312 1.453125 0 L 1.453125 -0.859375 C 2.398438 -0.910156 3.09375 -1.019531 3.53125 -1.1875 C 3.976562 -1.363281 4.28125 -1.691406 4.4375 -2.171875 C 4.59375 -2.660156 4.671875 -3.453125 4.671875 -4.546875 L 4.671875 -25.78125 C 4.671875 -26.863281 4.59375 -27.644531 4.4375 -28.125 C 4.28125 -28.613281 3.976562 -28.941406 3.53125 -29.109375 C 3.09375 -29.285156 2.398438 -29.40625 1.453125 -29.46875 L 1.453125 -30.328125 C 2.910156 -30.234375 5.164062 -30.1875 8.21875 -30.1875 C 10.988281 -30.1875 13.144531 -30.234375 14.6875 -30.328125 Z M 14.6875 -29.46875 "/></g></g><g style="fill:#ff5757;fill-opacity:1;"><g transform="translate(105.241248, 231.517167)"><path style="stroke:none" d="M 2.921875 -7.296875 L 0.046875 -7.296875 L 0.046875 -8.984375 L 7.890625 -8.984375 L 7.890625 -7.296875 L 5.015625 -7.296875 L 5.015625 0 L 2.921875 0 Z M 2.921875 -7.296875 "/></g></g><g style="fill:#ff5757;fill-opacity:1;"><g transform="translate(118.323607, 231.517167)"><path style="stroke:none" d="M 9.3125 -8.984375 L 9.3125 0 L 7.234375 0 L 7.234375 -3.6875 L 3.140625 -3.6875 L 3.140625 0 L 1.0625 0 L 1.0625 -8.984375 L 3.140625 -8.984375 L 3.140625 -5.453125 L 7.234375 -5.453125 L 7.234375 -8.984375 Z M 9.3125 -8.984375 "/></g></g><g style="fill:#ff5757;fill-opacity:1;"><g transform="translate(133.847688, 231.517167)"><path style="stroke:none" d="M 8.03125 -1.671875 L 8.03125 0 L 1.0625 0 L 1.0625 -8.984375 L 7.859375 -8.984375 L 7.859375 -7.328125 L 3.140625 -7.328125 L 3.140625 -5.375 L 7.3125 -5.375 L 7.3125 -3.75 L 3.140625 -3.75 L 3.140625 -1.671875 Z M 8.03125 -1.671875 "/></g></g><g style="fill:#ff5757;fill-opacity:1;"><g transform="translate(147.611168, 231.517167)"><path style="stroke:none" d=""/></g></g><g style="fill:#ff5757;fill-opacity:1;"><g transform="translate(156.38842, 231.517167)"><path style="stroke:none" d="M 4.015625 0.15625 C 3.304688 0.15625 2.617188 0.0625 1.953125 -0.125 C 1.296875 -0.320312 0.765625 -0.578125 0.359375 -0.890625 L 1.0625 -2.453125 C 1.445312 -2.171875 1.90625 -1.941406 2.4375 -1.765625 C 2.96875 -1.597656 3.5 -1.515625 4.03125 -1.515625 C 4.625 -1.515625 5.0625 -1.601562 5.34375 -1.78125 C 5.625 -1.957031 5.765625 -2.191406 5.765625 -2.484375 C 5.765625 -2.691406 5.679688 -2.863281 5.515625 -3 C 5.347656 -3.144531 5.132812 -3.257812 4.875 -3.34375 C 4.613281 -3.4375 4.257812 -3.535156 3.8125 -3.640625 C 3.125 -3.796875 2.5625 -3.953125 2.125 -4.109375 C 1.695312 -4.273438 1.328125 -4.539062 1.015625 -4.90625 C 0.703125 -5.269531 0.546875 -5.75 0.546875 -6.34375 C 0.546875 -6.863281 0.6875 -7.335938 0.96875 -7.765625 C 1.25 -8.191406 1.671875 -8.523438 2.234375 -8.765625 C 2.804688 -9.015625 3.503906 -9.140625 4.328125 -9.140625 C 4.898438 -9.140625 5.457031 -9.070312 6 -8.9375 C 6.550781 -8.800781 7.035156 -8.601562 7.453125 -8.34375 L 6.8125 -6.765625 C 5.976562 -7.234375 5.144531 -7.46875 4.3125 -7.46875 C 3.726562 -7.46875 3.296875 -7.375 3.015625 -7.1875 C 2.742188 -7 2.609375 -6.753906 2.609375 -6.453125 C 2.609375 -6.140625 2.769531 -5.90625 3.09375 -5.75 C 3.414062 -5.601562 3.90625 -5.457031 4.5625 -5.3125 C 5.25 -5.15625 5.804688 -4.992188 6.234375 -4.828125 C 6.671875 -4.660156 7.046875 -4.398438 7.359375 -4.046875 C 7.671875 -3.703125 7.828125 -3.234375 7.828125 -2.640625 C 7.828125 -2.117188 7.679688 -1.644531 7.390625 -1.21875 C 7.109375 -0.800781 6.679688 -0.46875 6.109375 -0.21875 C 5.535156 0.03125 4.835938 0.15625 4.015625 0.15625 Z M 4.015625 0.15625 "/></g></g><g style="fill:#ff5757;fill-opacity:1;"><g transform="translate(169.727804, 231.517167)"><path style="stroke:none" d="M 5.421875 0.15625 C 4.484375 0.15625 3.640625 -0.0390625 2.890625 -0.4375 C 2.140625 -0.84375 1.550781 -1.398438 1.125 -2.109375 C 0.707031 -2.816406 0.5 -3.613281 0.5 -4.5 C 0.5 -5.375 0.707031 -6.164062 1.125 -6.875 C 1.550781 -7.582031 2.140625 -8.132812 2.890625 -8.53125 C 3.640625 -8.9375 4.484375 -9.140625 5.421875 -9.140625 C 6.347656 -9.140625 7.1875 -8.9375 7.9375 -8.53125 C 8.6875 -8.132812 9.273438 -7.582031 9.703125 -6.875 C 10.128906 -6.164062 10.34375 -5.375 10.34375 -4.5 C 10.34375 -3.613281 10.128906 -2.816406 9.703125 -2.109375 C 9.273438 -1.398438 8.6875 -0.84375 7.9375 -0.4375 C 7.1875 -0.0390625 6.347656 0.15625 5.421875 0.15625 Z M 5.421875 -1.625 C 5.953125 -1.625 6.429688 -1.742188 6.859375 -1.984375 C 7.285156 -2.222656 7.617188 -2.5625 7.859375 -3 C 8.109375 -3.4375 8.234375 -3.9375 8.234375 -4.5 C 8.234375 -5.050781 8.109375 -5.546875 7.859375 -5.984375 C 7.617188 -6.421875 7.285156 -6.757812 6.859375 -7 C 6.429688 -7.25 5.953125 -7.375 5.421875 -7.375 C 4.890625 -7.375 4.410156 -7.25 3.984375 -7 C 3.554688 -6.757812 3.21875 -6.421875 2.96875 -5.984375 C 2.726562 -5.546875 2.609375 -5.050781 2.609375 -4.5 C 2.609375 -3.9375 2.726562 -3.4375 2.96875 -3 C 3.21875 -2.5625 3.554688 -2.222656 3.984375 -1.984375 C 4.410156 -1.742188 4.890625 -1.625 5.421875 -1.625 Z M 5.421875 -1.625 "/></g></g><g style="fill:#ff5757;fill-opacity:1;"><g transform="translate(185.714513, 231.517167)"><path style="stroke:none" d="M 5.0625 0.15625 C 3.78125 0.15625 2.78125 -0.195312 2.0625 -0.90625 C 1.34375 -1.625 0.984375 -2.640625 0.984375 -3.953125 L 0.984375 -8.984375 L 3.0625 -8.984375 L 3.0625 -4.03125 C 3.0625 -2.425781 3.734375 -1.625 5.078125 -1.625 C 5.722656 -1.625 6.21875 -1.816406 6.5625 -2.203125 C 6.90625 -2.585938 7.078125 -3.195312 7.078125 -4.03125 L 7.078125 -8.984375 L 9.125 -8.984375 L 9.125 -3.953125 C 9.125 -2.640625 8.765625 -1.625 8.046875 -0.90625 C 7.335938 -0.195312 6.34375 0.15625 5.0625 0.15625 Z M 5.0625 0.15625 "/></g></g><g style="fill:#ff5757;fill-opacity:1;"><g transform="translate(200.981568, 231.517167)"><path style="stroke:none" d="M 9.3125 -8.984375 L 9.3125 0 L 7.609375 0 L 3.125 -5.453125 L 3.125 0 L 1.0625 0 L 1.0625 -8.984375 L 2.78125 -8.984375 L 7.25 -3.53125 L 7.25 -8.984375 Z M 9.3125 -8.984375 "/></g></g><g style="fill:#ff5757;fill-opacity:1;"><g transform="translate(216.505649, 231.517167)"><path style="stroke:none" d="M 1.0625 -8.984375 L 5.15625 -8.984375 C 6.125 -8.984375 6.984375 -8.796875 7.734375 -8.421875 C 8.484375 -8.054688 9.066406 -7.535156 9.484375 -6.859375 C 9.898438 -6.179688 10.109375 -5.394531 10.109375 -4.5 C 10.109375 -3.59375 9.898438 -2.800781 9.484375 -2.125 C 9.066406 -1.457031 8.484375 -0.9375 7.734375 -0.5625 C 6.984375 -0.1875 6.125 0 5.15625 0 L 1.0625 0 Z M 5.046875 -1.703125 C 5.941406 -1.703125 6.65625 -1.953125 7.1875 -2.453125 C 7.726562 -2.960938 8 -3.644531 8 -4.5 C 8 -5.351562 7.726562 -6.03125 7.1875 -6.53125 C 6.65625 -7.03125 5.941406 -7.28125 5.046875 -7.28125 L 3.140625 -7.28125 L 3.140625 -1.703125 Z M 5.046875 -1.703125 "/></g></g><g style="fill:#ff5757;fill-opacity:1;"><g transform="translate(232.261036, 231.517167)"><path style="stroke:none" d=""/></g></g><g style="fill:#ff5757;fill-opacity:1;"><g transform="translate(241.038287, 231.517167)"><path style="stroke:none" d="M 5.421875 0.15625 C 4.484375 0.15625 3.640625 -0.0390625 2.890625 -0.4375 C 2.140625 -0.84375 1.550781 -1.398438 1.125 -2.109375 C 0.707031 -2.816406 0.5 -3.613281 0.5 -4.5 C 0.5 -5.375 0.707031 -6.164062 1.125 -6.875 C 1.550781 -7.582031 2.140625 -8.132812 2.890625 -8.53125 C 3.640625 -8.9375 4.484375 -9.140625 5.421875 -9.140625 C 6.347656 -9.140625 7.1875 -8.9375 7.9375 -8.53125 C 8.6875 -8.132812 9.273438 -7.582031 9.703125 -6.875 C 10.128906 -6.164062 10.34375 -5.375 10.34375 -4.5 C 10.34375 -3.613281 10.128906 -2.816406 9.703125 -2.109375 C 9.273438 -1.398438 8.6875 -0.84375 7.9375 -0.4375 C 7.1875 -0.0390625 6.347656 0.15625 5.421875 0.15625 Z M 5.421875 -1.625 C 5.953125 -1.625 6.429688 -1.742188 6.859375 -1.984375 C 7.285156 -2.222656 7.617188 -2.5625 7.859375 -3 C 8.109375 -3.4375 8.234375 -3.9375 8.234375 -4.5 C 8.234375 -5.050781 8.109375 -5.546875 7.859375 -5.984375 C 7.617188 -6.421875 7.285156 -6.757812 6.859375 -7 C 6.429688 -7.25 5.953125 -7.375 5.421875 -7.375 C 4.890625 -7.375 4.410156 -7.25 3.984375 -7 C 3.554688 -6.757812 3.21875 -6.421875 2.96875 -5.984375 C 2.726562 -5.546875 2.609375 -5.050781 2.609375 -4.5 C 2.609375 -3.9375 2.726562 -3.4375 2.96875 -3 C 3.21875 -2.5625 3.554688 -2.222656 3.984375 -1.984375 C 4.410156 -1.742188 4.890625 -1.625 5.421875 -1.625 Z M 5.421875 -1.625 "/></g></g><g style="fill:#ff5757;fill-opacity:1;"><g transform="translate(257.024995, 231.517167)"><path style="stroke:none" d="M 3.140625 -7.328125 L 3.140625 -4.9375 L 7.3125 -4.9375 L 7.3125 -3.28125 L 3.140625 -3.28125 L 3.140625 0 L 1.0625 0 L 1.0625 -8.984375 L 7.859375 -8.984375 L 7.859375 -7.328125 Z M 3.140625 -7.328125 "/></g></g><g style="fill:#ff5757;fill-opacity:1;"><g transform="translate(270.37724, 231.517167)"><path style="stroke:none" d=""/></g></g><g style="fill:#ff5757;fill-opacity:1;"><g transform="translate(279.154492, 231.517167)"><path style="stroke:none" d="M 2.921875 -7.296875 L 0.046875 -7.296875 L 0.046875 -8.984375 L 7.890625 -8.984375 L 7.890625 -7.296875 L 5.015625 -7.296875 L 5.015625 0 L 2.921875 0 Z M 2.921875 -7.296875 "/></g></g><g style="fill:#ff5757;fill-opacity:1;"><g transform="translate(292.236851, 231.517167)"><path style="stroke:none" d="M 6.796875 0 L 5.0625 -2.5 L 3.140625 -2.5 L 3.140625 0 L 1.0625 0 L 1.0625 -8.984375 L 4.953125 -8.984375 C 5.753906 -8.984375 6.445312 -8.847656 7.03125 -8.578125 C 7.613281 -8.316406 8.0625 -7.941406 8.375 -7.453125 C 8.695312 -6.972656 8.859375 -6.398438 8.859375 -5.734375 C 8.859375 -5.054688 8.695312 -4.476562 8.375 -4 C 8.0625 -3.519531 7.609375 -3.148438 7.015625 -2.890625 L 9.03125 0 Z M 6.75 -5.734375 C 6.75 -6.234375 6.585938 -6.617188 6.265625 -6.890625 C 5.941406 -7.160156 5.46875 -7.296875 4.84375 -7.296875 L 3.140625 -7.296875 L 3.140625 -4.15625 L 4.84375 -4.15625 C 5.46875 -4.15625 5.941406 -4.289062 6.265625 -4.5625 C 6.585938 -4.84375 6.75 -5.234375 6.75 -5.734375 Z M 6.75 -5.734375 "/></g></g><g style="fill:#ff5757;fill-opacity:1;"><g transform="translate(306.822801, 231.517167)"><path style="stroke:none" d="M 6.984375 -1.921875 L 2.8125 -1.921875 L 2.015625 0 L -0.109375 0 L 3.890625 -8.984375 L 5.953125 -8.984375 L 9.96875 0 L 7.78125 0 Z M 6.328125 -3.5 L 4.90625 -6.953125 L 3.484375 -3.5 Z M 6.328125 -3.5 "/></g></g><g style="fill:#ff5757;fill-opacity:1;"><g transform="translate(321.807126, 231.517167)"><path style="stroke:none" d="M 1.0625 -8.984375 L 5.15625 -8.984375 C 6.125 -8.984375 6.984375 -8.796875 7.734375 -8.421875 C 8.484375 -8.054688 9.066406 -7.535156 9.484375 -6.859375 C 9.898438 -6.179688 10.109375 -5.394531 10.109375 -4.5 C 10.109375 -3.59375 9.898438 -2.800781 9.484375 -2.125 C 9.066406 -1.457031 8.484375 -0.9375 7.734375 -0.5625 C 6.984375 -0.1875 6.125 0 5.15625 0 L 1.0625 0 Z M 5.046875 -1.703125 C 5.941406 -1.703125 6.65625 -1.953125 7.1875 -2.453125 C 7.726562 -2.960938 8 -3.644531 8 -4.5 C 8 -5.351562 7.726562 -6.03125 7.1875 -6.53125 C 6.65625 -7.03125 5.941406 -7.28125 5.046875 -7.28125 L 3.140625 -7.28125 L 3.140625 -1.703125 Z M 5.046875 -1.703125 "/></g></g><g style="fill:#ff5757;fill-opacity:1;"><g transform="translate(337.562513, 231.517167)"><path style="stroke:none" d="M 1.0625 -8.984375 L 3.140625 -8.984375 L 3.140625 0 L 1.0625 0 Z M 1.0625 -8.984375 "/></g></g><g style="fill:#ff5757;fill-opacity:1;"><g transform="translate(346.918069, 231.517167)"><path style="stroke:none" d="M 2.921875 -7.296875 L 0.046875 -7.296875 L 0.046875 -8.984375 L 7.890625 -8.984375 L 7.890625 -7.296875 L 5.015625 -7.296875 L 5.015625 0 L 2.921875 0 Z M 2.921875 -7.296875 "/></g></g><g style="fill:#ff5757;fill-opacity:1;"><g transform="translate(360.000427, 231.517167)"><path style="stroke:none" d="M 1.0625 -8.984375 L 3.140625 -8.984375 L 3.140625 0 L 1.0625 0 Z M 1.0625 -8.984375 "/></g></g><g style="fill:#ff5757;fill-opacity:1;"><g transform="translate(369.355983, 231.517167)"><path style="stroke:none" d="M 5.421875 0.15625 C 4.484375 0.15625 3.640625 -0.0390625 2.890625 -0.4375 C 2.140625 -0.84375 1.550781 -1.398438 1.125 -2.109375 C 0.707031 -2.816406 0.5 -3.613281 0.5 -4.5 C 0.5 -5.375 0.707031 -6.164062 1.125 -6.875 C 1.550781 -7.582031 2.140625 -8.132812 2.890625 -8.53125 C 3.640625 -8.9375 4.484375 -9.140625 5.421875 -9.140625 C 6.347656 -9.140625 7.1875 -8.9375 7.9375 -8.53125 C 8.6875 -8.132812 9.273438 -7.582031 9.703125 -6.875 C 10.128906 -6.164062 10.34375 -5.375 10.34375 -4.5 C 10.34375 -3.613281 10.128906 -2.816406 9.703125 -2.109375 C 9.273438 -1.398438 8.6875 -0.84375 7.9375 -0.4375 C 7.1875 -0.0390625 6.347656 0.15625 5.421875 0.15625 Z M 5.421875 -1.625 C 5.953125 -1.625 6.429688 -1.742188 6.859375 -1.984375 C 7.285156 -2.222656 7.617188 -2.5625 7.859375 -3 C 8.109375 -3.4375 8.234375 -3.9375 8.234375 -4.5 C 8.234375 -5.050781 8.109375 -5.546875 7.859375 -5.984375 C 7.617188 -6.421875 7.285156 -6.757812 6.859375 -7 C 6.429688 -7.25 5.953125 -7.375 5.421875 -7.375 C 4.890625 -7.375 4.410156 -7.25 3.984375 -7 C 3.554688 -6.757812 3.21875 -6.421875 2.96875 -5.984375 C 2.726562 -5.546875 2.609375 -5.050781 2.609375 -4.5 C 2.609375 -3.9375 2.726562 -3.4375 2.96875 -3 C 3.21875 -2.5625 3.554688 -2.222656 3.984375 -1.984375 C 4.410156 -1.742188 4.890625 -1.625 5.421875 -1.625 Z M 5.421875 -1.625 "/></g></g><g style="fill:#ff5757;fill-opacity:1;"><g transform="translate(385.342692, 231.517167)"><path style="stroke:none" d="M 9.3125 -8.984375 L 9.3125 0 L 7.609375 0 L 3.125 -5.453125 L 3.125 0 L 1.0625 0 L 1.0625 -8.984375 L 2.78125 -8.984375 L 7.25 -3.53125 L 7.25 -8.984375 Z M 9.3125 -8.984375 "/></g></g></g></svg>